PathFileType	4	(X/Y/Z)	1103211_Jog01.trc	
DataRate	CameraRate	NumFrames	NumMarkers	Units	OrigDataRate	OrigDataStartFrame	OrigNumFrames
300	300	4	69	mm	300	780	258
Frame#	Time	CLAV			STRN			RSHO			LSHO			C7			T10			RBAK			RASI			LASI			RPSI			LPSI			LGTR			RGTR			LHJC			RHJC			LANK			RANK			LHEE			RHEE			LMT5			RMT5			LTOE			RTOE			RELB			RWRA			RWRB			RFIN			LELB			LWRB			LWRA			LFIN			RFP1			RFP2			RFP3			RFM1			RFM2			RFM3			RFA1			RFA2			RFA3			LFP1			LFP2			LFP3			LFM1			LFM2			LFM3			LFA1			LFA2			LFA3			LKNE			RKNE			RTP1			RTP2			RTP3			RTA1			RTA2			RTA3			LTP1			LTP2			LTP3			LTA1			LFHD			LBHD			RFHD			RBHD			LUPA			LFRA			RUPA			RFRA			
		X1	Y1	Z1	X2	Y2	Z2	X3	Y3	Z3	X4	Y4	Z4	X5	Y5	Z5	X6	Y6	Z6	X7	Y7	Z7	X8	Y8	Z8	X9	Y9	Z9	X10	Y10	Z10	X11	Y11	Z11	X12	Y12	Z12	X13	Y13	Z13	X14	Y14	Z14	X15	Y15	Z15	X16	Y16	Z16	X17	Y17	Z17	X18	Y18	Z18	X19	Y19	Z19	X20	Y20	Z20	X21	Y21	Z21	X22	Y22	Z22	X23	Y23	Z23	X24	Y24	Z24	X25	Y25	Z25	X26	Y26	Z26	X27	Y27	Z27	X28	Y28	Z28	X29	Y29	Z29	X30	Y30	Z30	X31	Y31	Z31	X32	Y32	Z32	X33	Y33	Z33	X34	Y34	Z34	X35	Y35	Z35	X36	Y36	Z36	X37	Y37	Z37	X38	Y38	Z38	X39	Y39	Z39	X40	Y40	Z40	X41	Y41	Z41	X42	Y42	Z42	X43	Y43	Z43	X44	Y44	Z44	X45	Y45	Z45	X46	Y46	Z46	X47	Y47	Z47	X48	Y48	Z48	X49	Y49	Z49	X50	Y50	Z50	X51	Y51	Z51	X52	Y52	Z52	X53	Y53	Z53	X54	Y54	Z54	X55	Y55	Z55	X56	Y56	Z56	X57	Y57	Z57	X58	Y58	Z58	X59	Y59	Z59	X60	Y60	Z60	X61	Y61	Z61	X62	Y62	Z62	X63	Y63	Z63	X64	Y64	Z64	X65	Y65	Z65	X66	Y66	Z66	X67	Y67	Z67	X68	Y68	Z68	X69	Y69	Z69	

162	0.53667	1660.60010	1304.01270	-21.04037	1692.11804	1131.96948	-22.39799	1600.21948	1352.17908	148.00771	1572.72229	1346.83215	-187.36781	1521.00659	1374.70483	-12.78583	1458.96936	1087.55444	-0.95186	1466.55017	1291.83044	86.78880	1611.32178	887.01801	93.31264	1599.57678	892.89966	-127.49477	1429.25024	894.34552	40.49628	1424.88660	897.28455	-57.91774	1540.82104	811.62848	-180.73070	1535.55103	793.79962	154.27536	1528.67163	812.90070	-95.03011	1533.65515	808.74158	63.82343	1561.15527	88.18877	-49.54579	1147.27039	334.74481	116.44107	1494.31494	60.38150	3.45976	1126.54492	403.66409	64.50980	1668.92102	33.74208	-92.03069	1097.56995	219.18565	151.20718	1719.89990	63.22188	-25.50307	1131.55713	173.28131	87.54964	1469.66235	1106.58875	293.47412	1611.59741	940.10364	189.78041	1596.32275	901.41266	251.59645	1678.61499	901.92877	201.10516	1382.53674	1140.55383	-297.33881	1574.15320	984.73657	-258.73712	1590.82141	1043.31238	-222.85567	1670.19116	1007.90112	-246.97847	1531.41455	698.74908	164.37560	1535.27368	607.84515	163.67569	1535.15430	516.51630	156.58115	1593.27954	754.60876	146.34454	1603.07666	659.46704	152.65527	1608.64380	567.95471	146.90851	1640.25098	713.09631	101.68253	1646.35840	615.35846	103.56773	1636.08154	524.90094	95.50404	1570.11133	710.85699	-175.76482	1615.97937	610.59558	-150.21532	1643.62317	541.44061	-130.30476	1606.95020	782.55463	-173.17790	1648.91052	689.26349	-162.86510	1686.04285	607.57599	-140.78752	1677.57910	761.45917	-118.15068	1714.87292	675.99481	-91.41640	1733.62427	589.57635	-69.66414	1671.57056	452.88455	-108.11949	1518.17603	425.62558	147.21941	1421.52173	398.29529	159.53758	1321.66309	378.36349	145.41362	1240.11731	359.05414	128.13159	1472.11438	349.91525	96.02297	1389.74084	336.58951	87.04494	1305.65076	323.95645	83.92400	1653.53552	332.00623	-110.08638	1630.30920	257.22437	-94.49846	1605.40857	177.61967	-73.72133	1711.62292	379.45071	-43.11772	1662.96606	1571.09961	-100.18605	1548.28711	1552.09570	-110.28624	1663.99463	1570.64453	47.50574	1524.90552	1552.97180	53.38487	1512.35950	1264.15332	-257.51654	1502.54102	1043.13391	-290.94287	1504.91980	1181.73169	262.29382	1517.73132	1024.69177	293.93985	
163	0.54000	1669.46399	1302.44763	-20.57594	1700.61572	1130.37817	-21.64899	1608.38000	1350.77612	148.30472	1582.42822	1344.75562	-187.82347	1529.87585	1373.54163	-13.13510	1467.31140	1086.38550	-0.90677	1474.67529	1290.82410	86.35748	1619.42725	884.97955	93.52675	1607.53528	891.90924	-127.36967	1437.34009	892.87152	40.84213	1432.93079	896.06470	-57.56174	1548.48303	810.59625	-180.58299	1544.59631	792.14178	154.41861	1536.56152	811.84058	-95.16759	1541.64600	806.93445	63.66142	1561.49597	88.46660	-49.40112	1162.34412	334.69681	117.64887	1494.39612	60.77249	3.51651	1141.04773	403.40549	65.69139	1668.92395	33.59344	-92.13255	1113.38721	219.04938	153.04219	1720.13354	62.52306	-25.46381	1147.00403	173.05161	89.22845	1476.00647	1105.12781	292.72485	1616.25146	935.10950	191.90607	1599.65576	897.27191	253.96194	1682.49634	896.06604	204.73438	1395.05957	1135.60876	-298.27081	1587.21960	981.23779	-257.91199	1603.30457	1039.92358	-221.95845	1682.92188	1004.96088	-245.69194	1541.84033	697.14606	164.59987	1547.45972	606.42957	164.29172	1548.87537	515.09229	157.47766	1602.80432	753.67145	146.49741	1614.41528	658.88397	153.00784	1621.44519	567.54285	147.25142	1650.24487	712.67944	101.65457	1657.88159	615.37280	103.46390	1649.07544	524.84314	95.63270	1577.55225	709.74689	-175.75227	1623.04663	609.32098	-150.33934	1650.47742	540.04999	-130.56081	1614.55371	781.37897	-173.16978	1656.21741	687.87396	-163.03566	1693.07825	606.02087	-141.06938	1685.26843	759.97424	-118.43321	1722.24976	674.28461	-91.76396	1740.78503	587.73303	-70.12798	1678.11060	451.40469	-108.27858	1533.22314	424.15924	147.98163	1436.84216	397.05615	160.38049	1336.96143	377.45795	146.48279	1255.31506	358.58441	129.26083	1487.19922	348.77737	96.64381	1404.78699	335.77307	87.67787	1320.60461	323.37332	84.81598	1658.36060	330.83569	-110.14934	1633.91907	256.45547	-94.52202	1607.65393	177.27521	-73.75960	1717.11255	377.56900	-43.36433	1671.91101	1569.81238	-100.23064	1557.42175	1550.86951	-110.41035	1672.85706	1569.41260	47.47633	1533.74731	1551.65918	53.29559	1523.21338	1260.36792	-257.74219	1515.61963	1038.88477	-290.69873	1511.65430	1180.22278	261.71756	1522.93884	1022.44434	294.26392	
164	0.54333	1678.30615	1301.01807	-20.09277	1709.10278	1128.92053	-20.88326	1616.52563	1349.49890	148.60468	1592.15369	1342.80432	-188.24010	1538.74817	1372.49731	-13.46599	1475.64636	1085.35217	-0.86771	1482.80798	1289.94751	85.95052	1627.54016	883.13959	93.72607	1615.47876	891.00018	-127.25307	1445.43225	891.57617	41.19484	1440.96912	895.00787	-57.19810	1556.08728	809.66046	-180.43034	1553.62988	790.67279	154.56010	1544.42737	810.89111	-95.26445	1549.62891	805.32336	63.53897	1561.80518	88.74562	-49.28947	1177.55261	334.44498	118.82788	1494.46362	61.15066	3.56850	1155.58740	402.92133	66.86933	1668.90857	33.50269	-92.23903	1129.48706	218.65758	154.82635	1720.31702	61.95185	-25.45876	1162.76526	172.62079	90.83172	1482.29919	1103.85510	291.98914	1620.82043	930.39758	194.01825	1602.90662	893.40814	256.27618	1686.27319	890.51996	208.33887	1407.71765	1130.77417	-299.18439	1600.41443	977.90466	-257.00214	1615.88879	1036.70142	-220.97878	1695.74365	1002.22510	-244.30888	1552.26990	695.74164	164.81592	1559.68616	605.22449	164.89653	1562.66174	513.89630	158.34583	1612.31335	752.92328	146.64561	1625.75952	658.51312	153.31833	1634.27356	567.36426	147.53348	1660.20264	712.46722	101.58884	1669.38135	615.60236	103.28831	1662.06262	525.02081	95.67575	1584.88074	708.72302	-175.74065	1629.92908	608.10046	-150.47328	1657.09033	538.68921	-130.82881	1622.08667	780.27106	-173.16096	1663.39404	686.50586	-163.21159	1699.92566	604.45844	-141.35988	1692.88013	758.48035	-118.73796	1729.48169	672.53229	-92.11711	1747.75122	585.83142	-70.60652	1684.32275	449.91153	-108.46239	1548.32996	422.91437	148.68182	1452.23865	395.93564	161.16331	1352.35181	376.57025	147.49927	1270.62793	358.03101	130.35336	1502.38965	347.81061	97.19713	1419.96045	335.04404	88.24202	1335.70337	322.78076	85.66039	1662.92322	329.63831	-110.23491	1637.32019	255.66982	-94.55931	1609.74902	176.92278	-73.81425	1722.33105	375.66089	-43.68311	1680.85303	1568.63306	-100.25862	1566.56152	1549.75598	-110.51439	1681.71741	1568.29041	47.46179	1542.58777	1550.46387	53.22351	1534.11902	1256.74487	-257.93030	1528.84509	1034.78271	-290.38080	1518.35754	1178.89417	261.15411	1528.08997	1020.41071	294.57974	
165	0.54667	1687.12683	1299.72729	-19.59123	1717.58118	1127.60022	-20.10240	1624.65247	1348.35193	148.90706	1601.89746	1340.98682	-188.61497	1547.61877	1371.57007	-13.77844	1483.97766	1084.45300	-0.83511	1490.94751	1289.19946	85.56511	1635.66174	881.50073	93.91169	1623.41187	890.17877	-127.14436	1453.52869	890.45935	41.55232	1449.00439	894.11023	-56.83043	1563.63904	808.81879	-180.27293	1562.65076	789.39587	154.70010	1552.27637	810.05518	-95.32310	1557.60864	803.90820	63.45459	1562.08838	89.02373	-49.20613	1192.88281	333.98746	119.97575	1494.52100	61.51707	3.61810	1170.15503	402.20724	68.03897	1668.87927	33.45984	-92.34688	1145.85498	218.01167	156.55634	1720.45862	61.49227	-25.48207	1178.83374	171.99007	92.36050	1488.53992	1102.78235	291.27277	1625.31433	925.99164	196.11026	1606.09058	889.84100	258.53247	1689.95898	885.31433	211.90070	1420.50232	1126.06860	-300.07275	1613.73340	974.76233	-256.00439	1628.56714	1033.67090	-219.91454	1708.64966	999.72388	-242.82726	1562.70056	694.53955	165.02596	1571.94568	604.23389	165.49022	1576.50281	512.93317	159.18520	1621.80518	752.36682	146.78958	1637.10229	658.35791	153.58691	1647.11987	567.42181	147.75690	1670.12036	712.46313	101.48688	1680.85266	616.04865	103.04644	1675.03650	525.43555	95.63863	1592.09631	707.78180	-175.72649	1636.62292	606.92993	-150.61052	1663.45740	537.35529	-131.10072	1629.55164	779.22479	-173.14955	1670.43787	685.15155	-163.38823	1706.58020	602.88177	-141.65315	1700.41711	756.96759	-119.06569	1736.57239	670.73035	-92.47792	1754.52002	583.86737	-71.09492	1690.20508	448.40634	-108.66515	1563.48499	421.89847	149.32117	1467.69922	394.94226	161.88628	1367.82166	375.70618	148.46150	1286.04382	357.39493	131.40733	1517.67651	347.01971	97.68763	1435.25232	334.40356	88.74270	1350.93787	322.17938	86.45939	1667.22888	328.41534	-110.33571	1640.51917	254.86742	-94.60320	1611.70068	176.56020	-73.87889	1727.27783	373.72974	-44.05946	1689.79272	1567.56494	-100.26949	1575.70325	1548.75684	-110.59859	1690.57593	1567.28076	47.46277	1551.42639	1549.38940	53.16821	1545.07141	1253.30200	-258.07996	1542.21008	1030.85193	-289.98474	1525.03027	1177.75281	260.60745	1533.18774	1018.60498	294.88986	
